<svg xmlns="http://www.w3.org/2000/svg" viewBox="0 0 900 360" width="900" height="360"><rect width="900" height="360" fill="#E8F0EC"/><circle cx="740" cy="35" r="185" fill="#F4EBD2"/><circle cx="125" cy="345" r="170" fill="#D9E6DF"/><path d="M80 110h95m-48-47v95M710 250h95m-48-47v95" stroke="#C9A961" stroke-width="2" opacity=".55"/><g stroke="#0F4F3A" stroke-width="7" stroke-linecap="round" stroke-linejoin="round" fill="none"><rect x="290" y="100" width="240" height="155" rx="20" fill="#fff"/><path d="M290 145h240m-205 68h60"/><circle cx="560" cy="212" r="60" fill="#C9A961"/><path d="M544 238h35m-39-23h32m-28 23v-45q0-24 30-15"/><path d="M390 65q105-40 185 20m-10-30 14 33-35 6"/></g></svg>