<svg xmlns="http://www.w3.org/2000/svg" viewBox="0 0 900 360" width="900" height="360" style="--accent:#A9CBB9"><rect width="900" height="360" fill="#F6F0E4"/><circle cx="290" cy="185" r="190" fill="#A9CBB9"/><rect x="500" y="57" width="243" height="246" rx="26" fill="white" transform="rotate(7 620 180)"/><g transform="translate(160 44) scale(1.45) rotate(-8 100 100)" stroke="#34504B" stroke-width="5" stroke-linecap="round" stroke-linejoin="round" fill="none"><rect x="36" y="20" width="128" height="163" rx="12" fill="#A9CBB9"/><circle cx="100" cy="88" r="35" fill="white"/><ellipse cx="100" cy="88" rx="16" ry="35"/><path d="M65 88h70m-63-15h56m-56 30h56M74 150h52"/></g><g transform="translate(522 79) scale(1.02) rotate(7 100 100)" stroke="#34504B" stroke-width="5" stroke-linecap="round" stroke-linejoin="round" fill="none"><rect x="39" y="87" width="122" height="93" rx="15" fill="#A9CBB9"/><path d="M63 87V58a37 37 0 0 1 74 0v29" stroke-width="12"/><circle cx="100" cy="128" r="11" fill="white"/><path d="M100 138v18"/></g><g fill="#34504B" opacity=".15"><circle cx="790" cy="266" r="2"/><circle cx="790" cy="282" r="2"/><circle cx="790" cy="298" r="2"/><circle cx="790" cy="314" r="2"/><circle cx="806" cy="266" r="2"/><circle cx="806" cy="282" r="2"/><circle cx="806" cy="298" r="2"/><circle cx="806" cy="314" r="2"/><circle cx="822" cy="266" r="2"/><circle cx="822" cy="282" r="2"/><circle cx="822" cy="298" r="2"/><circle cx="822" cy="314" r="2"/><circle cx="838" cy="266" r="2"/><circle cx="838" cy="282" r="2"/><circle cx="838" cy="298" r="2"/><circle cx="838" cy="314" r="2"/></g></svg>