<svg xmlns="http://www.w3.org/2000/svg" viewBox="0 0 900 360" width="900" height="360" style="--accent:#D7AD79"><rect width="900" height="360" fill="#F4EEF2"/><circle cx="290" cy="185" r="190" fill="#D7AD79"/><rect x="500" y="57" width="243" height="246" rx="26" fill="white" transform="rotate(7 620 180)"/><g transform="translate(160 44) scale(1.45) rotate(-8 100 100)" stroke="#533D55" stroke-width="5" stroke-linecap="round" stroke-linejoin="round" fill="none"><path d="M20 91L100 25l80 66v91H20Z" fill="white"/><path d="M77 182v-65h46v65M45 97h22v25H45m88-25h22v25h-22"/></g><g transform="translate(522 79) scale(1.02) rotate(7 100 100)" stroke="#533D55" stroke-width="5" stroke-linecap="round" stroke-linejoin="round" fill="none"><circle cx="71" cy="67" r="43" fill="#D7AD79"/><circle cx="71" cy="67" r="13" fill="white"/><path d="M102 98l73 73m-20-20 19-19m-40-1 19-19" stroke-width="15"/></g><g fill="#533D55" opacity=".15"><circle cx="790" cy="266" r="2"/><circle cx="790" cy="282" r="2"/><circle cx="790" cy="298" r="2"/><circle cx="790" cy="314" r="2"/><circle cx="806" cy="266" r="2"/><circle cx="806" cy="282" r="2"/><circle cx="806" cy="298" r="2"/><circle cx="806" cy="314" r="2"/><circle cx="822" cy="266" r="2"/><circle cx="822" cy="282" r="2"/><circle cx="822" cy="298" r="2"/><circle cx="822" cy="314" r="2"/><circle cx="838" cy="266" r="2"/><circle cx="838" cy="282" r="2"/><circle cx="838" cy="298" r="2"/><circle cx="838" cy="314" r="2"/></g></svg>