<svg xmlns="http://www.w3.org/2000/svg" viewBox="0 0 900 360" width="900" height="360" style="--accent:#B8B4D8"><rect width="900" height="360" fill="#F0EFF7"/><path d="M0 270L900 88v272H0Z" fill="#B8B4D8"/><rect x="200" y="33" width="260" height="284" rx="19" fill="white" transform="rotate(-12 330 175)"/><rect x="463" y="63" width="238" height="260" rx="19" fill="#F0EFF7" transform="rotate(12 585 190)"/><g transform="translate(225 70) scale(1.065) rotate(-12 100 100)" stroke="#394467" stroke-width="5" stroke-linecap="round" stroke-linejoin="round" fill="none"><circle cx="100" cy="100" r="78" fill="white"/><ellipse cx="100" cy="100" rx="36" ry="78"/><path d="M22 100h156M36 57h128M36 143h128"/></g><g transform="translate(489 99) scale(0.955) rotate(12 100 100)" stroke="#394467" stroke-width="5" stroke-linecap="round" stroke-linejoin="round" fill="none"><path d="M48 121h104l-14 62H62Z" fill="#B8B4D8"/><path d="M100 120V65"/><path d="M100 95Q31 92 41 32q62 0 59 63m0-22q51-1 55-53-57 0-55 53" fill="white"/></g><g fill="#394467" opacity=".15"><circle cx="790" cy="266" r="2"/><circle cx="790" cy="282" r="2"/><circle cx="790" cy="298" r="2"/><circle cx="790" cy="314" r="2"/><circle cx="806" cy="266" r="2"/><circle cx="806" cy="282" r="2"/><circle cx="806" cy="298" r="2"/><circle cx="806" cy="314" r="2"/><circle cx="822" cy="266" r="2"/><circle cx="822" cy="282" r="2"/><circle cx="822" cy="298" r="2"/><circle cx="822" cy="314" r="2"/><circle cx="838" cy="266" r="2"/><circle cx="838" cy="282" r="2"/><circle cx="838" cy="298" r="2"/><circle cx="838" cy="314" r="2"/></g></svg>