<svg xmlns="http://www.w3.org/2000/svg" viewBox="0 0 900 360" width="900" height="360" style="--accent:#EDB96D"><rect width="900" height="360" fill="#EDF2E9"/><circle cx="445" cy="181" r="240" fill="#EDB96D"/><path d="M0 315h900" stroke="#123D35" stroke-width="3"/><rect x="163" y="228" width="260" height="86" rx="8" fill="white"/><rect x="513" y="265" width="235" height="49" rx="8" fill="#123D35"/><g transform="translate(171 13) scale(1.23) rotate(-5 100 100)" stroke="#123D35" stroke-width="5" stroke-linecap="round" stroke-linejoin="round" fill="none"><path d="M34 35h132v110H34Z" fill="white"/><path d="M34 145L13 171h174l-21-26Z" fill="#EDB96D"/><path d="M62 71h74M62 95h49M62 119h61"/></g><g transform="translate(526 68) scale(1.06) rotate(6 100 100)" stroke="#123D35" stroke-width="5" stroke-linecap="round" stroke-linejoin="round" fill="none"><circle cx="100" cy="100" r="76" fill="white"/><path d="M100 47v56l38 25" stroke-width="10"/><path d="M100 24v12m76 64h-12m-64 76v-12m-76-64h12"/></g><g fill="#123D35" opacity=".15"><circle cx="790" cy="266" r="2"/><circle cx="790" cy="282" r="2"/><circle cx="790" cy="298" r="2"/><circle cx="790" cy="314" r="2"/><circle cx="806" cy="266" r="2"/><circle cx="806" cy="282" r="2"/><circle cx="806" cy="298" r="2"/><circle cx="806" cy="314" r="2"/><circle cx="822" cy="266" r="2"/><circle cx="822" cy="282" r="2"/><circle cx="822" cy="298" r="2"/><circle cx="822" cy="314" r="2"/><circle cx="838" cy="266" r="2"/><circle cx="838" cy="282" r="2"/><circle cx="838" cy="298" r="2"/><circle cx="838" cy="314" r="2"/></g></svg>