<svg xmlns="http://www.w3.org/2000/svg" viewBox="0 0 900 360" width="900" height="360" style="--accent:#EEA68C"><rect width="900" height="360" fill="#ECF1F5"/><circle cx="290" cy="185" r="190" fill="#EEA68C"/><rect x="500" y="57" width="243" height="246" rx="26" fill="white" transform="rotate(7 620 180)"/><g transform="translate(160 44) scale(1.45) rotate(-8 100 100)" stroke="#203F59" stroke-width="5" stroke-linecap="round" stroke-linejoin="round" fill="none"><rect x="45" y="54" width="110" height="126" rx="25" fill="white"/><rect x="54" y="32" width="92" height="23" rx="6" fill="#EEA68C"/><path d="M70 93h60m-60 25h60m-60 25h35"/></g><g transform="translate(522 79) scale(1.02) rotate(7 100 100)" stroke="#203F59" stroke-width="5" stroke-linecap="round" stroke-linejoin="round" fill="none"><circle cx="61" cy="60" r="29" fill="white"/><circle cx="140" cy="141" r="29" fill="#EEA68C"/><path d="M48 163L153 37" stroke-width="13"/></g><g fill="#203F59" opacity=".15"><circle cx="790" cy="266" r="2"/><circle cx="790" cy="282" r="2"/><circle cx="790" cy="298" r="2"/><circle cx="790" cy="314" r="2"/><circle cx="806" cy="266" r="2"/><circle cx="806" cy="282" r="2"/><circle cx="806" cy="298" r="2"/><circle cx="806" cy="314" r="2"/><circle cx="822" cy="266" r="2"/><circle cx="822" cy="282" r="2"/><circle cx="822" cy="298" r="2"/><circle cx="822" cy="314" r="2"/><circle cx="838" cy="266" r="2"/><circle cx="838" cy="282" r="2"/><circle cx="838" cy="298" r="2"/><circle cx="838" cy="314" r="2"/></g></svg>