<svg xmlns="http://www.w3.org/2000/svg" viewBox="0 0 900 360" width="900" height="360" style="--accent:#EDB96D"><rect width="900" height="360" fill="#EDF2E9"/><circle cx="290" cy="185" r="190" fill="#EDB96D"/><rect x="500" y="57" width="243" height="246" rx="26" fill="white" transform="rotate(7 620 180)"/><g transform="translate(160 44) scale(1.45) rotate(-8 100 100)" stroke="#123D35" stroke-width="5" stroke-linecap="round" stroke-linejoin="round" fill="none"><rect x="23" y="48" width="146" height="122" rx="16" fill="white"/><path d="M29 48l113-25v25" fill="#EDB96D"/><rect x="116" y="87" width="66" height="46" rx="9" fill="#EDB96D"/><circle cx="139" cy="110" r="4"/></g><g transform="translate(522 79) scale(1.02) rotate(7 100 100)" stroke="#123D35" stroke-width="5" stroke-linecap="round" stroke-linejoin="round" fill="none"><circle cx="100" cy="100" r="76" fill="white"/><path d="M100 47v56l38 25" stroke-width="10"/><path d="M100 24v12m76 64h-12m-64 76v-12m-76-64h12"/></g><g fill="#123D35" opacity=".15"><circle cx="790" cy="266" r="2"/><circle cx="790" cy="282" r="2"/><circle cx="790" cy="298" r="2"/><circle cx="790" cy="314" r="2"/><circle cx="806" cy="266" r="2"/><circle cx="806" cy="282" r="2"/><circle cx="806" cy="298" r="2"/><circle cx="806" cy="314" r="2"/><circle cx="822" cy="266" r="2"/><circle cx="822" cy="282" r="2"/><circle cx="822" cy="298" r="2"/><circle cx="822" cy="314" r="2"/><circle cx="838" cy="266" r="2"/><circle cx="838" cy="282" r="2"/><circle cx="838" cy="298" r="2"/><circle cx="838" cy="314" r="2"/></g></svg>