<svg xmlns="http://www.w3.org/2000/svg" viewBox="0 0 900 360" width="900" height="360" style="--accent:#B8B4D8"><rect width="900" height="360" fill="#F0EFF7"/><path d="M70 298Q280-90 475 193T866 35" stroke="#B8B4D8" stroke-width="85" fill="none"/><circle cx="308" cy="151" r="126" fill="white"/><circle cx="624" cy="224" r="111" fill="white"/><g transform="translate(190 31) scale(1.15) rotate(-6 100 100)" stroke="#394467" stroke-width="5" stroke-linecap="round" stroke-linejoin="round" fill="none"><rect x="33" y="84" width="134" height="96" fill="white"/><rect x="23" y="63" width="154" height="33" rx="4" fill="#B8B4D8"/><path d="M100 63v117m0-117Q31 65 48 31q25-24 52 32m0 0q69 2 52-32-25-24-52 32"/></g><g transform="translate(530 125) scale(0.955) rotate(8 100 100)" stroke="#394467" stroke-width="5" stroke-linecap="round" stroke-linejoin="round" fill="none"><path d="M40 18h120v166l-20-12-20 12-20-12-20 12-20-12-20 12Z" fill="white"/><path d="M66 59h68m-68 29h43m-43 29h68m-68 29h40"/></g><g fill="#394467" opacity=".15"><circle cx="790" cy="266" r="2"/><circle cx="790" cy="282" r="2"/><circle cx="790" cy="298" r="2"/><circle cx="790" cy="314" r="2"/><circle cx="806" cy="266" r="2"/><circle cx="806" cy="282" r="2"/><circle cx="806" cy="298" r="2"/><circle cx="806" cy="314" r="2"/><circle cx="822" cy="266" r="2"/><circle cx="822" cy="282" r="2"/><circle cx="822" cy="298" r="2"/><circle cx="822" cy="314" r="2"/><circle cx="838" cy="266" r="2"/><circle cx="838" cy="282" r="2"/><circle cx="838" cy="298" r="2"/><circle cx="838" cy="314" r="2"/></g></svg>