<svg xmlns="http://www.w3.org/2000/svg" viewBox="0 0 900 360" width="900" height="360" style="--accent:#EEA68C"><rect width="900" height="360" fill="#ECF1F5"/><path d="M70 298Q280-90 475 193T866 35" stroke="#EEA68C" stroke-width="85" fill="none"/><circle cx="308" cy="151" r="126" fill="white"/><circle cx="624" cy="224" r="111" fill="white"/><g transform="translate(190 31) scale(1.15) rotate(-6 100 100)" stroke="#203F59" stroke-width="5" stroke-linecap="round" stroke-linejoin="round" fill="none"><circle cx="61" cy="61" r="26" fill="white"/><circle cx="140" cy="61" r="26" fill="white"/><path d="M17 169v-33q0-40 44-40m78 0q44 0 44 40v33"/><circle cx="100" cy="111" r="24" fill="#EEA68C"/><path d="M65 180v-15q0-30 35-30t35 30v15" fill="white"/></g><g transform="translate(530 125) scale(0.955) rotate(8 100 100)" stroke="#203F59" stroke-width="5" stroke-linecap="round" stroke-linejoin="round" fill="none"><rect x="33" y="84" width="134" height="96" fill="white"/><rect x="23" y="63" width="154" height="33" rx="4" fill="#EEA68C"/><path d="M100 63v117m0-117Q31 65 48 31q25-24 52 32m0 0q69 2 52-32-25-24-52 32"/></g><g fill="#203F59" opacity=".15"><circle cx="790" cy="266" r="2"/><circle cx="790" cy="282" r="2"/><circle cx="790" cy="298" r="2"/><circle cx="790" cy="314" r="2"/><circle cx="806" cy="266" r="2"/><circle cx="806" cy="282" r="2"/><circle cx="806" cy="298" r="2"/><circle cx="806" cy="314" r="2"/><circle cx="822" cy="266" r="2"/><circle cx="822" cy="282" r="2"/><circle cx="822" cy="298" r="2"/><circle cx="822" cy="314" r="2"/><circle cx="838" cy="266" r="2"/><circle cx="838" cy="282" r="2"/><circle cx="838" cy="298" r="2"/><circle cx="838" cy="314" r="2"/></g></svg>