<svg xmlns="http://www.w3.org/2000/svg" viewBox="0 0 900 360" width="900" height="360" style="--accent:#EDB96D"><rect width="900" height="360" fill="#EDF2E9"/><circle cx="445" cy="181" r="240" fill="#EDB96D"/><path d="M0 315h900" stroke="#123D35" stroke-width="3"/><rect x="163" y="228" width="260" height="86" rx="8" fill="white"/><rect x="513" y="265" width="235" height="49" rx="8" fill="#123D35"/><g transform="translate(171 13) scale(1.23) rotate(-5 100 100)" stroke="#123D35" stroke-width="5" stroke-linecap="round" stroke-linejoin="round" fill="none"><path d="M20 105a80 80 0 0 1 160 0q-28-20-53 0-27-20-54 0-27-20-53 0Z" fill="#EDB96D"/><path d="M100 23v-9m0 91v56q0 27 27 13"/></g><g transform="translate(526 68) scale(1.06) rotate(6 100 100)" stroke="#123D35" stroke-width="5" stroke-linecap="round" stroke-linejoin="round" fill="none"><circle cx="61" cy="61" r="26" fill="white"/><circle cx="140" cy="61" r="26" fill="white"/><path d="M17 169v-33q0-40 44-40m78 0q44 0 44 40v33"/><circle cx="100" cy="111" r="24" fill="#EDB96D"/><path d="M65 180v-15q0-30 35-30t35 30v15" fill="white"/></g><g fill="#123D35" opacity=".15"><circle cx="790" cy="266" r="2"/><circle cx="790" cy="282" r="2"/><circle cx="790" cy="298" r="2"/><circle cx="790" cy="314" r="2"/><circle cx="806" cy="266" r="2"/><circle cx="806" cy="282" r="2"/><circle cx="806" cy="298" r="2"/><circle cx="806" cy="314" r="2"/><circle cx="822" cy="266" r="2"/><circle cx="822" cy="282" r="2"/><circle cx="822" cy="298" r="2"/><circle cx="822" cy="314" r="2"/><circle cx="838" cy="266" r="2"/><circle cx="838" cy="282" r="2"/><circle cx="838" cy="298" r="2"/><circle cx="838" cy="314" r="2"/></g></svg>