<svg xmlns="http://www.w3.org/2000/svg" viewBox="0 0 900 360" width="900" height="360" style="--accent:#E7B969"><rect width="900" height="360" fill="#F8EEE6"/><path d="M0 0h520L380 360H0Z" fill="#794938"/><circle cx="685" cy="100" r="147" fill="#E7B969"/><rect x="146" y="61" width="245" height="245" rx="35" fill="#F8EEE6" transform="rotate(-7 265 180)"/><g transform="translate(169 82) scale(1.015) rotate(-7 100 100)" stroke="#794938" stroke-width="5" stroke-linecap="round" stroke-linejoin="round" fill="none"><rect x="45" y="54" width="110" height="126" rx="25" fill="white"/><rect x="54" y="32" width="92" height="23" rx="6" fill="#E7B969"/><path d="M70 93h60m-60 25h60m-60 25h35"/></g><g transform="translate(530 88) scale(1.225) rotate(10 100 100)" stroke="#794938" stroke-width="5" stroke-linecap="round" stroke-linejoin="round" fill="none"><circle cx="61" cy="60" r="29" fill="white"/><circle cx="140" cy="141" r="29" fill="#E7B969"/><path d="M48 163L153 37" stroke-width="13"/></g><g fill="#794938" opacity=".15"><circle cx="790" cy="266" r="2"/><circle cx="790" cy="282" r="2"/><circle cx="790" cy="298" r="2"/><circle cx="790" cy="314" r="2"/><circle cx="806" cy="266" r="2"/><circle cx="806" cy="282" r="2"/><circle cx="806" cy="298" r="2"/><circle cx="806" cy="314" r="2"/><circle cx="822" cy="266" r="2"/><circle cx="822" cy="282" r="2"/><circle cx="822" cy="298" r="2"/><circle cx="822" cy="314" r="2"/><circle cx="838" cy="266" r="2"/><circle cx="838" cy="282" r="2"/><circle cx="838" cy="298" r="2"/><circle cx="838" cy="314" r="2"/></g></svg>