<svg xmlns="http://www.w3.org/2000/svg" viewBox="0 0 900 360" width="900" height="360" style="--accent:#E7B969"><rect width="900" height="360" fill="#F8EEE6"/><circle cx="290" cy="185" r="190" fill="#E7B969"/><rect x="500" y="57" width="243" height="246" rx="26" fill="white" transform="rotate(7 620 180)"/><g transform="translate(160 44) scale(1.45) rotate(-8 100 100)" stroke="#794938" stroke-width="5" stroke-linecap="round" stroke-linejoin="round" fill="none"><path d="M48 121h104l-14 62H62Z" fill="#E7B969"/><path d="M100 120V65"/><path d="M100 95Q31 92 41 32q62 0 59 63m0-22q51-1 55-53-57 0-55 53" fill="white"/></g><g transform="translate(522 79) scale(1.02) rotate(7 100 100)" stroke="#794938" stroke-width="5" stroke-linecap="round" stroke-linejoin="round" fill="none"><circle cx="61" cy="61" r="26" fill="white"/><circle cx="140" cy="61" r="26" fill="white"/><path d="M17 169v-33q0-40 44-40m78 0q44 0 44 40v33"/><circle cx="100" cy="111" r="24" fill="#E7B969"/><path d="M65 180v-15q0-30 35-30t35 30v15" fill="white"/></g><g fill="#794938" opacity=".15"><circle cx="790" cy="266" r="2"/><circle cx="790" cy="282" r="2"/><circle cx="790" cy="298" r="2"/><circle cx="790" cy="314" r="2"/><circle cx="806" cy="266" r="2"/><circle cx="806" cy="282" r="2"/><circle cx="806" cy="298" r="2"/><circle cx="806" cy="314" r="2"/><circle cx="822" cy="266" r="2"/><circle cx="822" cy="282" r="2"/><circle cx="822" cy="298" r="2"/><circle cx="822" cy="314" r="2"/><circle cx="838" cy="266" r="2"/><circle cx="838" cy="282" r="2"/><circle cx="838" cy="298" r="2"/><circle cx="838" cy="314" r="2"/></g></svg>